<svg width="512" height="256" viewBox="0 0 512 256" fill="none" xmlns="http://www.w3.org/2000/svg" role="img" aria-labelledby="title desc">
  <title id="title">AWS Cloud</title>
  <desc id="desc">Cloud architecture dashboard with connected AWS services</desc>
  <rect width="512" height="256" rx="24" fill="#0F172A"/>
  <circle cx="96" cy="56" r="88" fill="#2563EB" fill-opacity="0.22"/>
  <circle cx="416" cy="208" r="104" fill="#F59E0B" fill-opacity="0.18"/>
  <rect x="54" y="40" width="404" height="176" rx="18" fill="#F8FAFC"/>
  <rect x="78" y="64" width="120" height="44" rx="10" fill="#FF9900"/>
  <text x="100" y="93" fill="#111827" font-family="Inter, Arial, sans-serif" font-size="22" font-weight="800">AWS</text>
  <rect x="78" y="132" width="84" height="46" rx="10" fill="#DBEAFE"/>
  <rect x="214" y="72" width="84" height="46" rx="10" fill="#DCFCE7"/>
  <rect x="350" y="132" width="84" height="46" rx="10" fill="#FEF3C7"/>
  <path d="M162 155H214V95H198" stroke="#64748B" stroke-width="6" stroke-linecap="round" stroke-linejoin="round"/>
  <path d="M298 95H324C338.359 95 350 106.641 350 121V132" stroke="#64748B" stroke-width="6" stroke-linecap="round" stroke-linejoin="round"/>
  <path d="M112 132V108" stroke="#64748B" stroke-width="6" stroke-linecap="round"/>
  <text x="104" y="161" fill="#1E3A8A" font-family="Inter, Arial, sans-serif" font-size="14" font-weight="700">IAM</text>
  <text x="232" y="101" fill="#166534" font-family="Inter, Arial, sans-serif" font-size="14" font-weight="700">API</text>
  <text x="370" y="161" fill="#92400E" font-family="Inter, Arial, sans-serif" font-size="14" font-weight="700">DB</text>
  <path d="M219 177C227 159 245 147 266 147C291 147 311 164 315 187H324C340 187 352 198 352 212H176C176 193 192 177 211 177H219Z" fill="#1D4ED8"/>
  <path d="M222 196H310" stroke="#BFDBFE" stroke-width="6" stroke-linecap="round"/>
</svg>
